# xmcd
#
# Track frame offsets:
# 150
# 17949
# 33269
# 53156
# 68635
# 84663
# 100044
# 116060
# 138755
# 158415
#
# Disc length: 2339 seconds
#
#
# Revision: 0
# Processed by: cddbd v1.5PL3 Copyright (c) Steve Scherf et al.
# Submitted via: FreeRIP 2.53 
#
DISCID=7409210a
DTITLE=Tillis, Pam - All Of This Love
DYEAR=1900
DGENRE=
TTITLE0=Betty's Got A Bass Boat
TTITLE1=Deep Down
TTITLE2=The River And The Highway
TTITLE3=Mandolin Rain
TTITLE4=Sunset Red And Pale Moonlight
TTITLE5=It's Lonely Out There
TTITLE6=You Can't Have A Good Time Without Me
TTITLE7=Tequilla Mockingbird
TTITLE8=No Two Ways About It
TTITLE9=All Of This Love
EXTD=
EXTT0=
EXTT1=
EXTT2=
EXTT3=
EXTT4=
EXTT5=
EXTT6=
EXTT7=
EXTT8=
EXTT9=
PLAYORDER=
